<?xml version="1.0" encoding="utf-8"?>
<!-- Generator: Adobe Illustrator 22.1.0, SVG Export Plug-In . SVG Version: 6.00 Build 0)  -->
<svg version="1.1" id="Layer_1" xmlns="http://www.w3.org/2000/svg" xmlns:xlink="http://www.w3.org/1999/xlink" x="0px" y="0px"
	 viewBox="0 0 185.3 185.7" style="enable-background:new 0 0 185.3 185.7;" xml:space="preserve">
<style type="text/css">
	.st0{fill:#FFFFFF;}
	.st1{fill:#C1C1C1;}
	.st2{fill:#D0D2D3;}
	.st3{fill:#EAEAEA;}
	.st4{fill:#5A371D;}
	.st5{fill:#6CB743;}
	.st6{fill:#379E43;}
	.st7{fill:#00722F;}
</style>
<g>
	<path class="st0" d="M150.1,160.9L150.1,160.9L150.1,160.9C150.1,160.8,150.1,160.8,150.1,160.9L150.1,160.9L150.1,160.9z"/>
	<path class="st1" d="M171.7,179.3c0.7,0,1.3-0.6,1.3-1.3v-29.7h5.8l0,0c0.6,0,1.1-0.5,1.1-1.2c0-0.3-0.1-0.6-0.3-0.8l0,0l0,0l0,0
		l-11.1-11.1v-13c0-0.6-0.5-1.2-1.2-1.2H161c-0.6,0-1.2,0.5-1.2,1.2v4.2l-6.7-6.7c-0.9-0.9-1.1-1.1-1.7-1.1c-0.6,0-0.7,0.2-1.7,1.1
		l-6.7,6.7l-8.7,8.6l-11.1,11.1l0,0l0,0l0,0c-0.2,0.2-0.3,0.5-0.3,0.8c0,0.6,0.5,1.2,1.1,1.2l0,0h5.8v29.7c0,0.7,0.6,1.3,1.3,1.3
		h40.6V179.3z"/>
	<g>
		<rect x="144" y="151.7" class="st0" width="5.6" height="5.6"/>
		<rect x="136.3" y="151.7" class="st0" width="5.6" height="5.6"/>
		<rect x="144" y="159" class="st0" width="5.6" height="5.6"/>
		<rect x="136.3" y="159" class="st0" width="5.6" height="5.6"/>
	</g>
	<rect x="155.2" y="160.4" class="st0" width="11.4" height="21.2"/>
</g>
<g>
	<path class="st0" d="M49.5,157.7L49.5,157.7L49.5,157.7C49.5,157.6,49.5,157.7,49.5,157.7L49.5,157.7L49.5,157.7z"/>
	<path class="st1" d="M74.9,179.3c0.8,0,1.5-0.7,1.5-1.5v-35h6.8l0,0c0.7,0,1.3-0.6,1.3-1.4c0-0.4-0.1-0.7-0.4-0.9l0,0l0,0l0,0
		l-13-13.1v-15.2c0-0.8-0.6-1.4-1.4-1.4h-7.4c-0.8,0-1.4,0.6-1.4,1.4v5l-7.8-7.8c-1.1-1.1-1.3-1.3-2-1.3s-0.9,0.2-2,1.3l-7.8,7.8
		l-10.1,10.2l-13,13.1l0,0l0,0l0,0c-0.2,0.2-0.4,0.6-0.4,0.9c0,0.7,0.6,1.4,1.3,1.4l0,0h6.8v35c0,0.8,0.7,1.5,1.5,1.5H74.9z"/>
	<g>
		<rect x="42.3" y="146.9" class="st0" width="6.5" height="6.5"/>
		<rect x="33.2" y="146.9" class="st0" width="6.5" height="6.5"/>
		<rect x="42.3" y="155.4" class="st0" width="6.5" height="6.5"/>
		<rect x="33.2" y="155.4" class="st0" width="6.5" height="6.5"/>
	</g>
	<rect x="55.4" y="157.1" class="st0" width="13.4" height="24.9"/>
</g>
<g>
	<path class="st0" d="M102.2,153.3C102.3,153.3,102.3,153.4,102.2,153.3C102.3,153.3,102.3,153.3,102.2,153.3
		C102.3,153.3,102.3,153.3,102.2,153.3L102.2,153.3L102.2,153.3z"/>
	<path class="st2" d="M132.8,179.3c1,0,1.8-0.8,1.8-1.8v-42h8.2l0,0c0.9,0,1.6-0.8,1.6-1.7c0-0.4-0.2-0.8-0.5-1.1l0,0l0,0l0,0
		L128.2,117V98.8c0-0.9-0.7-1.7-1.7-1.7h-8.9c-0.9,0-1.7,0.7-1.7,1.7v6l-9.4-9.4c-1.3-1.3-1.6-1.6-2.4-1.6s-1.1,0.3-2.4,1.6
		l-9.2,9.3l-12.2,12.2l-15.7,15.7l0,0l0,0l0,0c-0.3,0.3-0.5,0.7-0.5,1.1c0,0.9,0.7,1.6,1.6,1.7l0,0h8.2v42c0,1,0.8,1.8,1.8,1.8h57.1
		V179.3z"/>
	<g>
		<rect x="93.7" y="140.4" class="st0" width="7.9" height="7.9"/>
		<rect x="82.7" y="140.4" class="st0" width="7.9" height="7.9"/>
		<rect x="93.7" y="150.7" class="st0" width="7.9" height="7.9"/>
		<rect x="82.7" y="150.7" class="st0" width="7.9" height="7.9"/>
	</g>
	<rect x="109.4" y="152.6" class="st0" width="16.1" height="29.9"/>
</g>
<path class="st3" d="M48.6,77c1.7,1.9,4.4,2.1,6.4,0.7c1.8,1.5,4.5,1.6,6.3,0.1c0.1,0.2,0.1,0.5,0.2,0.7c1,2.6,4,3.9,6.6,2.9
	c1.4-0.6,2.4-1.7,2.9-3.1c1.2,0.5,2.6,0.6,3.9,0.1c0.8-0.3,1.5-0.8,2-1.4c0.9,1.9,3.1,2.9,5.1,2.1s3-3.1,2.2-5.1
	c-0.6-1.5-2.1-2.5-3.6-2.5c0-0.5-0.1-1.1-0.3-1.6c-0.9-2.3-3.6-3.5-5.9-2.6c-0.7,0.3-1.3,0.7-1.8,1.3c-0.1-0.4-0.2-0.9-0.3-1.3
	c-1-2.6-4-3.9-6.6-2.9c-1.3,0.5-2.3,1.5-2.8,2.8c-1.7-1.3-4.1-1.3-5.8,0.2c-0.7,0.6-1.1,1.3-1.3,2.1c-0.3,0.2-0.7,0.4-1,0.6
	c-1.8-1.3-4.3-1.2-5.9,0.3C47,72,46.9,75,48.6,77"/>
<path class="st3" d="M12.5,93.8c1.2,1.4,3.3,1.6,4.7,0.5c1.3,1.1,3.3,1.1,4.6,0c0,0.2,0.1,0.3,0.2,0.5c0.8,1.9,2.9,2.8,4.8,2.1
	c1-0.4,1.8-1.3,2.1-2.2c0.9,0.4,1.9,0.5,2.9,0.1c0.6-0.2,1.1-0.6,1.5-1.1c0.6,1.4,2.3,2.1,3.7,1.5c1.5-0.6,2.2-2.3,1.6-3.8
	c-0.5-1.1-1.5-1.8-2.7-1.9c0-0.4-0.1-0.8-0.2-1.2c-0.7-1.7-2.6-2.5-4.3-1.9c-0.5,0.2-1,0.5-1.3,1c0-0.3-0.1-0.6-0.2-1
	c-0.9-1.7-3-2.7-4.9-2c-1,0.4-1.7,1.1-2,2c-1.2-1-3-0.9-4.2,0.1c-0.5,0.4-0.8,1-1,1.6c-0.2,0.1-0.5,0.3-0.7,0.5
	c-1.3-0.9-3.1-0.9-4.3,0.3C11.3,90.1,11.2,92.3,12.5,93.8"/>
<path class="st3" d="M134.3,93.8c1.2,1.4,3.3,1.6,4.7,0.5c1.3,1.1,3.3,1.1,4.6,0c0,0.2,0.1,0.3,0.2,0.5c0.8,1.9,2.9,2.8,4.8,2.1
	c1-0.4,1.8-1.3,2.1-2.2c0.9,0.4,1.9,0.5,2.9,0.1c0.6-0.2,1.1-0.6,1.5-1.1c0.6,1.4,2.3,2.1,3.7,1.5c1.5-0.6,2.2-2.3,1.6-3.8
	c-0.5-1.1-1.5-1.8-2.7-1.9c0-0.4-0.1-0.8-0.2-1.2c-0.7-1.7-2.6-2.5-4.3-1.9c-0.5,0.2-1,0.5-1.3,1c0-0.3-0.1-0.6-0.2-1
	c-0.8-1.9-2.9-2.8-4.8-2.1c-1,0.4-1.7,1.1-2,2c-1.2-1-3-0.9-4.2,0.1c-0.5,0.4-0.8,1-1,1.6c-0.2,0.1-0.5,0.3-0.7,0.5
	c-1.3-0.9-3.1-0.9-4.3,0.2C133.1,90.1,133,92.3,134.3,93.8"/>
<g>
	<g>
		<polygon class="st4" points="17.6,179.9 15.8,179.9 16.7,161.4 17.6,142.9 18.5,161.4 19.3,179.9 		"/>
	</g>
	<path class="st5" d="M17.6,137.7c-7.7,0-13.9,6.2-13.9,13.9c0,7.7,6.2,13.9,13.9,13.9V137.7z"/>
	<path class="st6" d="M17.6,137.7c7.7,0,13.9,6.2,13.9,13.9c0,7.7-6.2,13.9-13.9,13.9V137.7z"/>
</g>
<g>
	<g>
		<path class="st7" d="M168.4,95.9c0.4-1,0.7-2.1,0.9-3.2c0.2-1.1,0.3-2.3,0.3-3.4c0-4.9-1.8-9.3-4.9-12.6c-3-3.3-7.2-5.6-12-6.1
			c-1.3-3.6-3.7-6.6-6.8-8.8c-3.1-2.2-6.8-3.5-10.8-3.5c-1.8,0-3.5,0.2-5.1,0.7s-3.1,1.1-4.6,2c-1.6-2.9-3.9-5.3-6.8-7
			c-2.8-1.7-6.1-2.7-9.6-2.7c-4.7,0-8.9,1.7-12.2,4.5c-3.3,2.8-5.6,6.8-6.3,11.2c-0.4,0-0.8-0.1-1.2-0.1c-0.4,0-0.8,0-1.2,0
			c-5.2,0-9.9,2.1-13.3,5.5c-3.4,3.4-5.5,8.1-5.5,13.3c0,0.3,0,0.5,0,0.8c0,0.3,0,0.5,0.1,0.7c-2.6,1.7-4.8,4-6.4,6.7
			c-1.5,2.7-2.4,5.9-2.4,9.2c0,3,0.7,5.7,1.9,8.2s3,4.7,5.1,6.4c0,0.2,0,0.3,0,0.5s0,0.3,0,0.5c0,5.2,2.1,9.9,5.5,13.3
			s8.1,5.5,13.3,5.5c1.6,0,3.1-0.2,4.5-0.6c1.4-0.4,2.8-0.9,4.1-1.6c1.8,1.3,4,2.7,6,3.8c2,1,3.9,1.7,5.2,1.4c0,0,0.2,3.6,0.4,7.6
			c0.2,4,0.4,8.5,0.3,10.3c-0.2,3.5-0.8,7.1-1.5,10.7s-1.6,7-2.4,10.2h11.3h11.3c0,0-0.8-3.5-1.7-7.5c-0.9-4-1.7-8.7-1.8-11
			c-0.1-2.3,0.3-5.6,0.7-8.3c0.4-2.7,0.8-4.8,0.8-4.8l3.9-4.1l3.9-4.1c1.5,1,3.2,1.8,5,2.4c1.8,0.6,3.7,0.8,5.6,0.8
			c4.9,0,9.3-1.8,12.6-4.9c3.3-3,5.6-7.2,6.1-12c3.6-1.3,6.6-3.7,8.8-6.8c2.2-3.1,3.5-6.8,3.5-10.8c0-2.4-0.4-4.7-1.3-6.8
			C171,99.5,169.9,97.6,168.4,95.9z M99.5,132.3c0.8-0.7,1.4-1.5,2.1-2.3c0.6-0.8,1.2-1.7,1.7-2.7l1.8,3.9l1.8,3.9
			c0,0-0.5,0.2-1.7,0C104.1,134.8,102.2,134.1,99.5,132.3z M113.3,137.1c-1,0.2-2.2-1.2-3.6-3.2c-1.3-2-2.7-4.7-3.9-7.1
			c1.3,0.7,2.6,1.2,4.1,1.5c1.4,0.4,2.9,0.5,4.4,0.5c0.4,0,0.8,0,1.2,0c0.4,0,0.8-0.1,1.2-0.1c-0.3,1.9-0.7,3.9-1.3,5.5
			C114.8,135.8,114.2,136.9,113.3,137.1z M121.4,140.8c-2.2,0.6-2.7-1.4-2.4-4.2c0.3-2.8,1.2-6.4,1.9-9c0.5-0.2,0.9-0.4,1.3-0.6
			s0.9-0.4,1.3-0.7c0.3,1.9,0.8,3.8,1.6,5.5c0.8,1.7,1.8,3.3,3.1,4.6c-1.1,1-2.2,1.9-3.4,2.7C123.7,139.9,122.5,140.5,121.4,140.8z"
			/>
	</g>
	<path class="st4" d="M128.2,136.5c-1.1,0.9-2.2,1.9-3.4,2.6c-1.2,0.8-2.3,1.4-3.4,1.7c-2.2,0.6-2.7-1.4-2.4-4.2
		c0.3-2.7,1.2-6.2,1.8-8.8c-1.3,0.5-2.7,0.8-4.2,1c-0.3,1.9-0.7,3.8-1.2,5.3c-0.6,1.6-1.2,2.7-2.1,2.9c-1,0.2-2.2-1.2-3.6-3.2
		c-1.3-2-2.7-4.6-3.8-6.9c-0.6-0.3-1.2-0.7-1.8-1.1c-0.2,0.6-0.5,1.1-0.7,1.6l1.8,3.7l1.8,3.9c0,0-0.5,0.2-1.7,0s-3-0.9-5.6-2.6
		c-1.3,1.3-2.7,2.3-4.3,3.2c1.7,1.2,3.8,2.6,5.8,3.6s3.9,1.7,5.2,1.4c0,0,0.2,3.6,0.4,7.6c0.2,4,0.4,8.5,0.3,10.3
		c-0.2,3.5-0.8,7.1-1.5,10.7s-1.6,7-2.4,10.2h11.3h11.3c0,0-0.8-3.5-1.7-7.5c-0.9-4-1.7-8.7-1.8-11c-0.1-2.3,0.3-5.6,0.7-8.3
		c0.4-2.7,0.8-4.8,0.8-4.8l3.9-4.1l3.9-4.1c0,0,0.1,0,0.1,0.1C130.4,138.7,129.2,137.7,128.2,136.5z"/>
</g>
<g>
	<polygon class="st4" points="167.3,179.4 165.6,179.4 166.5,161.4 167.3,143.4 168.2,161.4 169,179.4 	"/>
	<path class="st5" d="M167.3,125.9C167.3,125.9,167.3,125.8,167.3,125.9c0,0-13.1,14.7-13.1,22s5.9,13.2,13.1,13.2l0,0V125.9z"/>
	<path class="st6" d="M167.3,125.9C167.3,125.9,167.4,125.8,167.3,125.9c0,0,13.1,14.7,13.1,22s-5.9,13.2-13.1,13.2l0,0V125.9z"/>
</g>
</svg>
