<?xml version="1.0" encoding="utf-8"?>
<!-- Generator: Adobe Illustrator 22.1.0, SVG Export Plug-In . SVG Version: 6.00 Build 0)  -->
<svg version="1.1" id="Layer_1" xmlns="http://www.w3.org/2000/svg" xmlns:xlink="http://www.w3.org/1999/xlink" x="0px" y="0px"
	 viewBox="0 0 185.3 184.7" style="enable-background:new 0 0 185.3 184.7;" xml:space="preserve">
<style type="text/css">
	.st0{fill:#FFFFFF;}
	.st1{fill:#C1C1C1;}
	.st2{fill:#D0D2D3;}
	.st3{fill:#EAEAEA;}
	.st4{fill:#5A371D;}
	.st5{fill:#6CB743;}
	.st6{fill:#379E43;}
</style>
<g>
	<path class="st0" d="M150.1,159.9L150.1,159.9C150.2,159.9,150.1,159.9,150.1,159.9C150.1,159.8,150.1,159.8,150.1,159.9
		L150.1,159.9L150.1,159.9z"/>
	<path class="st1" d="M171.8,178.3c0.7,0,1.3-0.6,1.3-1.3v-29.7h5.8l0,0c0.6,0,1.1-0.5,1.1-1.2c0-0.3-0.1-0.6-0.3-0.8l0,0l0,0l0,0
		l-11.1-11.1v-13c0-0.6-0.5-1.2-1.2-1.2h-6.3c-0.6,0-1.2,0.5-1.2,1.2v4.2l-6.7-6.7c-0.9-0.9-1.1-1.1-1.7-1.1c-0.6,0-0.7,0.2-1.7,1.1
		l-6.7,6.7l-8.7,8.6l-11.1,11.1l0,0l0,0l0,0c-0.2,0.2-0.3,0.5-0.3,0.8c0,0.6,0.5,1.2,1.1,1.2l0,0h5.8v29.7c0,0.7,0.6,1.3,1.3,1.3
		h40.6V178.3z"/>
	<g>
		<rect x="144.1" y="150.7" class="st0" width="5.6" height="5.6"/>
		<rect x="136.3" y="150.7" class="st0" width="5.6" height="5.6"/>
		<rect x="144.1" y="158" class="st0" width="5.6" height="5.6"/>
		<rect x="136.3" y="158" class="st0" width="5.6" height="5.6"/>
	</g>
	<rect x="155.2" y="159.4" class="st0" width="11.4" height="21.2"/>
</g>
<g>
	<path class="st0" d="M49.5,156.7L49.5,156.7L49.5,156.7C49.5,156.6,49.5,156.7,49.5,156.7L49.5,156.7L49.5,156.7z"/>
	<path class="st1" d="M74.9,178.3c0.8,0,1.5-0.7,1.5-1.5v-35h6.8l0,0c0.7,0,1.3-0.6,1.3-1.4c0-0.4-0.1-0.7-0.4-0.9l0,0l0,0l0,0
		l-13-13.1v-15.2c0-0.8-0.6-1.4-1.4-1.4h-7.4c-0.8,0-1.4,0.6-1.4,1.4v5l-7.8-7.8c-1.1-1.1-1.3-1.3-2-1.3s-0.9,0.2-2,1.3l-7.8,7.8
		l-10.1,10.2l-13,13.1l0,0l0,0l0,0c-0.2,0.2-0.4,0.6-0.4,0.9c0,0.7,0.6,1.4,1.3,1.4l0,0h6.8v35c0,0.8,0.7,1.5,1.5,1.5H74.9z"/>
	<g>
		<rect x="42.3" y="145.9" class="st0" width="6.5" height="6.5"/>
		<rect x="33.2" y="145.9" class="st0" width="6.5" height="6.5"/>
		<rect x="42.3" y="154.4" class="st0" width="6.5" height="6.5"/>
		<rect x="33.2" y="154.4" class="st0" width="6.5" height="6.5"/>
	</g>
	<rect x="55.5" y="156.1" class="st0" width="13.4" height="24.9"/>
</g>
<g>
	<path class="st0" d="M102.3,152.3C102.3,152.3,102.3,152.4,102.3,152.3L102.3,152.3L102.3,152.3L102.3,152.3L102.3,152.3z"/>
	<path class="st2" d="M132.8,178.3c1,0,1.8-0.8,1.8-1.8v-42h8.2l0,0c0.9,0,1.6-0.8,1.6-1.7c0-0.4-0.2-0.8-0.5-1.1l0,0l0,0l0,0
		L128.2,116V97.8c0-0.9-0.7-1.7-1.7-1.7h-8.9c-0.9,0-1.7,0.7-1.7,1.7v6l-9.4-9.4c-1.3-1.3-1.6-1.6-2.4-1.6s-1.1,0.3-2.4,1.6
		l-9.2,9.3l-12.2,12.2l-15.7,15.7l0,0l0,0l0,0c-0.3,0.3-0.5,0.7-0.5,1.1c0,0.9,0.7,1.6,1.6,1.7l0,0h8.2v42c0,1,0.8,1.8,1.8,1.8h57.1
		V178.3z"/>
	<g>
		<rect x="93.7" y="139.4" class="st0" width="7.9" height="7.9"/>
		<rect x="82.7" y="139.4" class="st0" width="7.9" height="7.9"/>
		<rect x="93.7" y="149.7" class="st0" width="7.9" height="7.9"/>
		<rect x="82.7" y="149.7" class="st0" width="7.9" height="7.9"/>
	</g>
	<rect x="109.5" y="151.6" class="st0" width="16.1" height="29.9"/>
</g>
<path class="st3" d="M48.7,76c1.7,1.9,4.4,2.1,6.4,0.7c1.8,1.5,4.5,1.6,6.3,0.1c0.1,0.2,0.1,0.5,0.2,0.7c1,2.6,4,3.9,6.6,2.9
	c1.4-0.6,2.4-1.7,2.9-3.1c1.2,0.5,2.6,0.6,3.9,0.1c0.8-0.3,1.5-0.8,2-1.4c0.9,1.9,3.1,2.9,5.1,2.1s3-3.1,2.2-5.1
	c-0.6-1.5-2.1-2.5-3.6-2.5c0-0.5-0.1-1.1-0.3-1.6c-0.9-2.3-3.6-3.5-5.9-2.6c-0.7,0.3-1.3,0.7-1.8,1.3c-0.1-0.4-0.2-0.9-0.3-1.3
	c-1-2.6-4-3.9-6.6-2.9c-1.3,0.5-2.3,1.5-2.8,2.8c-1.7-1.3-4.1-1.3-5.8,0.2c-0.7,0.6-1.1,1.3-1.3,2.1c-0.3,0.2-0.7,0.4-1,0.6
	c-1.8-1.3-4.3-1.2-5.9,0.3C47,71,46.9,74,48.7,76"/>
<path class="st3" d="M12.6,92.8c1.2,1.4,3.3,1.6,4.7,0.5c1.3,1.1,3.3,1.1,4.6,0c0,0.2,0.1,0.3,0.2,0.5c0.8,1.9,2.9,2.8,4.8,2.1
	c1-0.4,1.8-1.3,2.1-2.2c0.9,0.4,1.9,0.5,2.9,0.1c0.6-0.2,1.1-0.6,1.5-1.1c0.6,1.4,2.3,2.1,3.7,1.5c1.5-0.6,2.2-2.3,1.6-3.8
	c-0.5-1.1-1.5-1.8-2.7-1.9c0-0.4-0.1-0.8-0.2-1.2c-0.7-1.7-2.6-2.5-4.3-1.9c-0.5,0.2-1,0.5-1.3,1c0-0.3-0.1-0.6-0.2-1
	c-0.9-1.7-3.1-2.7-5-2c-1,0.4-1.7,1.1-2,2c-1.2-1-3-0.9-4.2,0.1c-0.5,0.4-0.8,1-1,1.6c-0.2,0.1-0.5,0.3-0.7,0.5
	c-1.3-0.9-3.1-0.9-4.3,0.3C11.4,89.1,11.3,91.3,12.6,92.8"/>
<path class="st3" d="M134.3,92.8c1.2,1.4,3.3,1.6,4.7,0.5c1.3,1.1,3.3,1.1,4.6,0c0,0.2,0.1,0.3,0.2,0.5c0.8,1.9,2.9,2.8,4.8,2.1
	c1-0.4,1.8-1.3,2.1-2.2c0.9,0.4,1.9,0.5,2.9,0.1c0.6-0.2,1.1-0.6,1.5-1.1c0.6,1.4,2.3,2.1,3.7,1.5c1.5-0.6,2.2-2.3,1.6-3.8
	c-0.5-1.1-1.5-1.8-2.7-1.9c0-0.4-0.1-0.8-0.2-1.2c-0.7-1.7-2.6-2.5-4.3-1.9c-0.5,0.2-1,0.5-1.3,1c0-0.3-0.1-0.6-0.2-1
	c-0.8-1.9-2.9-2.8-4.8-2.1c-1,0.4-1.7,1.1-2,2c-1.2-1-3-0.9-4.2,0.1c-0.5,0.4-0.8,1-1,1.6c-0.2,0.1-0.5,0.3-0.7,0.5
	c-1.3-0.9-3.1-0.9-4.3,0.2C133.1,89.1,133,91.3,134.3,92.8"/>
<g>
	<g>
		<polygon class="st4" points="17.6,178.9 15.9,178.9 16.7,160.4 17.6,141.9 18.5,160.4 19.4,178.9 		"/>
	</g>
	<path class="st5" d="M17.6,136.7c-7.7,0-13.9,6.2-13.9,13.9c0,7.7,6.2,13.9,13.9,13.9V136.7z"/>
	<path class="st6" d="M17.6,136.7c7.7,0,13.9,6.2,13.9,13.9c0,7.7-6.2,13.9-13.9,13.9V136.7z"/>
</g>
</svg>
